<?xml version="1.0" encoding="UTF-8"?>
<svg xmlns="http://www.w3.org/2000/svg" xmlns:xlink="http://www.w3.org/1999/xlink" width="200pt" height="200pt" viewBox="0 0 200 200" version="1.1">
<g id="surface1">
<path style=" stroke:none;fill-rule:nonzero;fill:rgb(100%,100%,100%);fill-opacity:1;" d="M 74.679688 95.058594 L 44.359375 95.058594 C 45.851562 84.871094 52.953125 78.355469 62.195312 78.351562 C 93.332031 78.351562 124.46875 78.351562 155.605469 78.351562 L 159.355469 78.351562 C 159.957031 84.933594 153.773438 93.179688 147.386719 94.476562 C 145.460938 94.828125 143.511719 94.992188 141.554688 94.960938 C 125.761719 95 109.960938 95.03125 94.160156 94.933594 C 91.628906 94.933594 90.65625 95.574219 90.246094 98.375 C 86.230469 125.675781 82.03125 152.945312 77.875 180.226562 C 77.648438 181.742188 77.359375 183.238281 77.097656 184.757812 C 53.648438 178.734375 22.125 152.652344 17.933594 110.613281 C 13.828125 69.523438 37.15625 31.214844 73.960938 17.894531 C 111.570312 4.28125 149.574219 19.542969 168.648438 45.191406 C 162.558594 44.898438 157.347656 46 151.847656 41.222656 C 130.152344 22.398438 105.113281 17.21875 78.332031 26.773438 C 50.203125 36.808594 32.742188 57.832031 27.9375 88.121094 C 22.824219 120.386719 34.390625 146.476562 59.890625 165.886719 C 60.457031 166.296875 61.046875 166.664062 61.664062 166.988281 C 62 167.078125 62.34375 167.125 62.691406 167.125 L 74.699219 95.066406 "/>
<path style=" stroke:none;fill-rule:nonzero;fill:rgb(100%,100%,100%);fill-opacity:1;" d="M 84.183594 177.328125 C 99.914062 180.847656 114.75 180.175781 129.382812 174.675781 C 161.546875 162.597656 182.554688 128.054688 178.378906 92.9375 C 177.460938 85.242188 174.816406 77.753906 172.71875 70.242188 C 172.417969 69.164062 170.710938 67.769531 169.644531 67.757812 C 152.695312 67.617188 135.742188 67.671875 118.792969 67.695312 C 118.464844 67.734375 118.140625 67.820312 117.835938 67.945312 C 115.921875 73.878906 115.921875 73.878906 109.503906 73.878906 L 100.460938 73.878906 C 101.597656 66.417969 102.566406 59.496094 103.84375 52.632812 C 103.976562 51.921875 105.925781 51.144531 107.0625 51.132812 C 116.285156 51.011719 125.515625 51.0625 134.738281 51.0625 C 146.617188 51.0625 158.476562 51.117188 170.375 51.011719 C 172.601562 51.011719 173.910156 51.703125 175.101562 53.683594 C 208.175781 108.5625 176.203125 179.457031 114.203125 188.496094 C 104.699219 189.859375 95.035156 189.523438 85.644531 187.496094 C 83.410156 187.027344 82.917969 186.230469 83.261719 183.914062 C 83.570312 181.804688 83.859375 179.753906 84.183594 177.328125 "/>
<path style=" stroke:none;fill-rule:nonzero;fill:rgb(95.294118%,50.196078%,13.72549%);fill-opacity:1;" d="M 88.800781 150.101562 C 89.839844 143.21875 90.820312 136.683594 91.824219 130.144531 C 93.210938 121.109375 94.699219 112.074219 95.949219 103.042969 C 96.289062 100.613281 97.21875 99.875 99.5 99.957031 C 103.722656 100.113281 107.953125 100 112.5 100 C 110.785156 110.921875 109.144531 121.335938 107.503906 131.75 C 107.351562 132.6875 107.1875 133.621094 107.058594 134.5625 C 105.640625 144.820312 99.835938 149.953125 88.796875 150.117188 "/>
<path style=" stroke:none;fill-rule:nonzero;fill:rgb(95.294118%,50.196078%,13.72549%);fill-opacity:1;" d="M 57.683594 159.933594 C 57.671875 159.941406 57.660156 159.941406 57.652344 159.933594 C 37.992188 142.839844 27.996094 120.984375 30.578125 94.351562 C 33.589844 63.082031 50.152344 41.554688 78.550781 30.285156 C 102.652344 20.71875 132.917969 27.117188 150.871094 44.871094 C 150.695312 45.414062 149.621094 45.753906 149.09375 45.667969 C 148.296875 45.542969 147.011719 44.722656 145.976562 43.949219 C 135.871094 35.9375 123.882812 30.847656 111.246094 29.195312 C 80.121094 24.992188 48.898438 44.1875 37.632812 74.605469 C 26.890625 103.605469 34.332031 135.113281 56.792969 155.667969 C 57.339844 156.152344 57.84375 156.683594 58.296875 157.257812 C 58.617188 157.683594 58.734375 158.234375 58.613281 158.753906 C 58.492188 159.277344 58.148438 159.714844 57.679688 159.945312 "/>
<path style=" stroke:none;fill-rule:nonzero;fill:rgb(95.294118%,50.196078%,13.72549%);fill-opacity:1;" d="M 84.582031 171.140625 C 112.226562 177.203125 136.371094 170.785156 155.246094 148.738281 C 174.117188 126.695312 177.113281 101.070312 167.988281 73.570312 C 168.613281 73.246094 169.351562 73.261719 169.960938 73.609375 C 170.105469 73.710938 170.347656 73.773438 171 75.351562 C 171.035156 75.449219 171.191406 75.832031 171.21875 75.929688 C 178.261719 97.195312 176.910156 117.9375 166.300781 137.539062 C 150.476562 166.796875 119.242188 181.152344 87.511719 174.339844 C 86.085938 174.035156 83.492188 173.761719 84.574219 171.144531 "/>
</g>
</svg>
